<svg width="20" height="23" viewBox="0 0 20 23" fill="none" xmlns="http://www.w3.org/2000/svg">
<path id="calendar_month" d="M2.22222 22.2222C1.61111 22.2222 1.08796 22.0046 0.652778 21.5694C0.217593 21.1343 0 20.6111 0 20V4.44444C0 3.83333 0.217593 3.31019 0.652778 2.875C1.08796 2.43981 1.61111 2.22222 2.22222 2.22222H3.33333V0H5.55556V2.22222H14.4444V0H16.6667V2.22222H17.7778C18.3889 2.22222 18.912 2.43981 19.3472 2.875C19.7824 3.31019 20 3.83333 20 4.44444V20C20 20.6111 19.7824 21.1343 19.3472 21.5694C18.912 22.0046 18.3889 22.2222 17.7778 22.2222H2.22222ZM2.22222 20H17.7778V8.88889H2.22222V20ZM2.22222 6.66667H17.7778V4.44444H2.22222V6.66667ZM10 13.3333C9.68519 13.3333 9.4213 13.2269 9.20833 13.0139C8.99537 12.8009 8.88889 12.537 8.88889 12.2222C8.88889 11.9074 8.99537 11.6435 9.20833 11.4306C9.4213 11.2176 9.68519 11.1111 10 11.1111C10.3148 11.1111 10.5787 11.2176 10.7917 11.4306C11.0046 11.6435 11.1111 11.9074 11.1111 12.2222C11.1111 12.537 11.0046 12.8009 10.7917 13.0139C10.5787 13.2269 10.3148 13.3333 10 13.3333ZM5.55556 13.3333C5.24074 13.3333 4.97685 13.2269 4.76389 13.0139C4.55093 12.8009 4.44444 12.537 4.44444 12.2222C4.44444 11.9074 4.55093 11.6435 4.76389 11.4306C4.97685 11.2176 5.24074 11.1111 5.55556 11.1111C5.87037 11.1111 6.13426 11.2176 6.34722 11.4306C6.56019 11.6435 6.66667 11.9074 6.66667 12.2222C6.66667 12.537 6.56019 12.8009 6.34722 13.0139C6.13426 13.2269 5.87037 13.3333 5.55556 13.3333ZM14.4444 13.3333C14.1296 13.3333 13.8657 13.2269 13.6528 13.0139C13.4398 12.8009 13.3333 12.537 13.3333 12.2222C13.3333 11.9074 13.4398 11.6435 13.6528 11.4306C13.8657 11.2176 14.1296 11.1111 14.4444 11.1111C14.7593 11.1111 15.0231 11.2176 15.2361 11.4306C15.4491 11.6435 15.5556 11.9074 15.5556 12.2222C15.5556 12.537 15.4491 12.8009 15.2361 13.0139C15.0231 13.2269 14.7593 13.3333 14.4444 13.3333ZM10 17.7778C9.68519 17.7778 9.4213 17.6713 9.20833 17.4583C8.99537 17.2454 8.88889 16.9815 8.88889 16.6667C8.88889 16.3519 8.99537 16.088 9.20833 15.875C9.4213 15.662 9.68519 15.5556 10 15.5556C10.3148 15.5556 10.5787 15.662 10.7917 15.875C11.0046 16.088 11.1111 16.3519 11.1111 16.6667C11.1111 16.9815 11.0046 17.2454 10.7917 17.4583C10.5787 17.6713 10.3148 17.7778 10 17.7778ZM5.55556 17.7778C5.24074 17.7778 4.97685 17.6713 4.76389 17.4583C4.55093 17.2454 4.44444 16.9815 4.44444 16.6667C4.44444 16.3519 4.55093 16.088 4.76389 15.875C4.97685 15.662 5.24074 15.5556 5.55556 15.5556C5.87037 15.5556 6.13426 15.662 6.34722 15.875C6.56019 16.088 6.66667 16.3519 6.66667 16.6667C6.66667 16.9815 6.56019 17.2454 6.34722 17.4583C6.13426 17.6713 5.87037 17.7778 5.55556 17.7778ZM14.4444 17.7778C14.1296 17.7778 13.8657 17.6713 13.6528 17.4583C13.4398 17.2454 13.3333 16.9815 13.3333 16.6667C13.3333 16.3519 13.4398 16.088 13.6528 15.875C13.8657 15.662 14.1296 15.5556 14.4444 15.5556C14.7593 15.5556 15.0231 15.662 15.2361 15.875C15.4491 16.088 15.5556 16.3519 15.5556 16.6667C15.5556 16.9815 15.4491 17.2454 15.2361 17.4583C15.0231 17.6713 14.7593 17.7778 14.4444 17.7778Z" fill="#2D9CDB"/>
</svg>
