<svg width="26" height="26" viewBox="0 0 26 26" fill="none" xmlns="http://www.w3.org/2000/svg">
<g id="Layer 2">
<path id="Vector" d="M22.625 5.12506H21.75V1.62506C21.75 1.47268 21.7102 1.32295 21.6345 1.19068C21.5589 1.05841 21.45 0.948189 21.3186 0.870929C21.1873 0.79367 21.0381 0.75205 20.8857 0.750187C20.7333 0.748325 20.5831 0.786285 20.4499 0.860311L13 4.99915L5.55007 0.860311C5.41688 0.786285 5.26667 0.748325 5.11431 0.750187C4.96194 0.75205 4.8127 0.79367 4.68136 0.870929C4.55002 0.948189 4.44113 1.05841 4.36547 1.19068C4.28981 1.32295 4.25001 1.47268 4.25 1.62506V5.12506H3.375C2.67904 5.12582 2.01181 5.40263 1.51969 5.89475C1.02757 6.38687 0.750764 7.0541 0.75 7.75006V10.3751C0.750764 11.071 1.02757 11.7383 1.51969 12.2304C2.01181 12.7225 2.67904 12.9993 3.375 13.0001H4.25V22.6251C4.25076 23.321 4.52757 23.9882 5.01969 24.4804C5.51181 24.9725 6.17904 25.2493 6.875 25.2501H19.125C19.821 25.2493 20.4882 24.9725 20.9803 24.4804C21.4724 23.9882 21.7492 23.321 21.75 22.6251V13.0001H22.625C23.321 12.9993 23.9882 12.7225 24.4803 12.2304C24.9724 11.7383 25.2492 11.071 25.25 10.3751V7.75006C25.2492 7.0541 24.9724 6.38687 24.4803 5.89475C23.9882 5.40263 23.321 5.12582 22.625 5.12506ZM20 5.12506H16.3769L20 3.11256V5.12506ZM6 3.11256L9.62311 5.12506H6V3.11256ZM6 22.6251V13.0001H12.125V23.5001H6.875C6.64303 23.4998 6.42064 23.4075 6.25661 23.2434C6.09258 23.0794 6.0003 22.857 6 22.6251ZM20 22.6251C19.9997 22.857 19.9074 23.0794 19.7434 23.2434C19.5794 23.4075 19.357 23.4998 19.125 23.5001H13.875V13.0001H20V22.6251ZM23.5 10.3751C23.4997 10.607 23.4074 10.8294 23.2434 10.9934C23.0794 11.1575 22.857 11.2498 22.625 11.2501H3.375C3.14303 11.2498 2.92064 11.1575 2.75661 10.9934C2.59258 10.8294 2.5003 10.607 2.5 10.3751V7.75006C2.5003 7.51809 2.59258 7.2957 2.75661 7.13167C2.92064 6.96764 3.14303 6.87536 3.375 6.87506H22.625C22.857 6.87536 23.0794 6.96764 23.2434 7.13167C23.4074 7.2957 23.4997 7.51809 23.5 7.75006V10.3751Z" fill="#5E6C93"/>
</g>
</svg>
