<svg width="20" height="20" viewBox="0 0 20 20" fill="none" xmlns="http://www.w3.org/2000/svg">
<g id="Icon">
<path id="Vector" d="M2.49997 18.3335H5.83331C5.94298 18.3341 6.0517 18.3131 6.15323 18.2717C6.25476 18.2302 6.34711 18.1691 6.42497 18.0918L16.425 8.09184C16.5031 8.01437 16.5651 7.9222 16.6074 7.82065C16.6497 7.71911 16.6715 7.61018 16.6715 7.50017C16.6715 7.39016 16.6497 7.28124 16.6074 7.17969C16.5651 7.07814 16.5031 6.98598 16.425 6.90851L13.0916 3.57517C13.0142 3.49707 12.922 3.43507 12.8205 3.39276C12.7189 3.35046 12.61 3.32867 12.5 3.32867C12.39 3.32867 12.281 3.35046 12.1795 3.39276C12.0779 3.43507 11.9858 3.49707 11.9083 3.57517L1.90831 13.5752C1.83107 13.653 1.76997 13.7454 1.7285 13.8469C1.68703 13.9485 1.66601 14.0572 1.66664 14.1668V17.5002C1.66664 17.7212 1.75444 17.9332 1.91072 18.0894C2.067 18.2457 2.27896 18.3335 2.49997 18.3335ZM3.33331 14.5085L12.5 5.34184L14.6583 7.50017L5.49164 16.6668H3.33331V14.5085Z" fill="#464255"/>
<path id="Vector_2" d="M14.7584 1.90835C14.6807 1.83065 14.5885 1.76901 14.487 1.72696C14.3854 1.68491 14.2766 1.66327 14.1668 1.66327C13.9448 1.66327 13.732 1.75143 13.5751 1.90835C13.4182 2.06527 13.33 2.27809 13.33 2.50001C13.33 2.72193 13.4182 2.93476 13.5751 3.09168L16.9084 6.42501C16.9859 6.50312 17.0781 6.56512 17.1796 6.60742C17.2812 6.64973 17.3901 6.67151 17.5001 6.67151C17.6101 6.67151 17.719 6.64973 17.8206 6.60742C17.9221 6.56512 18.0143 6.50312 18.0918 6.42501C18.1699 6.34755 18.2319 6.25538 18.2742 6.15383C18.3165 6.05228 18.3383 5.94336 18.3383 5.83335C18.3383 5.72334 18.3165 5.61442 18.2742 5.51287C18.2319 5.41132 18.1699 5.31915 18.0918 5.24168L14.7584 1.90835Z" fill="#464255"/>
</g>
</svg>
