<svg width="20" height="20" viewBox="0 0 20 20" fill="none" xmlns="http://www.w3.org/2000/svg">
<g id="Icon">
<path id="Vector" d="M17.5 15.8333H4.16667V2.49996C4.16667 2.27895 4.07887 2.06698 3.92259 1.9107C3.76631 1.75442 3.55435 1.66663 3.33333 1.66663C3.11232 1.66663 2.90036 1.75442 2.74408 1.9107C2.5878 2.06698 2.5 2.27895 2.5 2.49996V16.6666C2.5 16.8876 2.5878 17.0996 2.74408 17.2559C2.90036 17.4122 3.11232 17.5 3.33333 17.5H17.5C17.721 17.5 17.933 17.4122 18.0893 17.2559C18.2455 17.0996 18.3333 16.8876 18.3333 16.6666C18.3333 16.4456 18.2455 16.2337 18.0893 16.0774C17.933 15.9211 17.721 15.8333 17.5 15.8333Z" fill="#464255"/>
<path id="Vector_2" d="M5.83334 9.16665V13.3333C5.83334 13.5543 5.92114 13.7663 6.07742 13.9226C6.2337 14.0788 6.44566 14.1666 6.66668 14.1666C6.88769 14.1666 7.09965 14.0788 7.25593 13.9226C7.41221 13.7663 7.50001 13.5543 7.50001 13.3333V9.16665C7.50001 8.94563 7.41221 8.73367 7.25593 8.57739C7.09965 8.42111 6.88769 8.33331 6.66668 8.33331C6.44566 8.33331 6.2337 8.42111 6.07742 8.57739C5.92114 8.73367 5.83334 8.94563 5.83334 9.16665Z" fill="#464255"/>
<path id="Vector_3" d="M9.16666 5.00002V13.3334C9.16666 13.5544 9.25445 13.7663 9.41073 13.9226C9.56701 14.0789 9.77898 14.1667 9.99999 14.1667C10.221 14.1667 10.433 14.0789 10.5892 13.9226C10.7455 13.7663 10.8333 13.5544 10.8333 13.3334V5.00002C10.8333 4.77901 10.7455 4.56705 10.5892 4.41076C10.433 4.25448 10.221 4.16669 9.99999 4.16669C9.77898 4.16669 9.56701 4.25448 9.41073 4.41076C9.25445 4.56705 9.16666 4.77901 9.16666 5.00002Z" fill="#464255"/>
<path id="Vector_4" d="M12.5 6.66665V13.3333C12.5 13.5543 12.5878 13.7663 12.7441 13.9226C12.9004 14.0788 13.1123 14.1666 13.3333 14.1666C13.5543 14.1666 13.7663 14.0788 13.9226 13.9226C14.0789 13.7663 14.1667 13.5543 14.1667 13.3333V6.66665C14.1667 6.44563 14.0789 6.23367 13.9226 6.07739C13.7663 5.92111 13.5543 5.83331 13.3333 5.83331C13.1123 5.83331 12.9004 5.92111 12.7441 6.07739C12.5878 6.23367 12.5 6.44563 12.5 6.66665Z" fill="#464255"/>
<path id="Vector_5" d="M15.8334 2.49996V13.3333C15.8334 13.5543 15.9212 13.7663 16.0775 13.9225C16.2337 14.0788 16.4457 14.1666 16.6667 14.1666C16.8877 14.1666 17.0997 14.0788 17.256 13.9225C17.4122 13.7663 17.5 13.5543 17.5 13.3333V2.49996C17.5 2.27895 17.4122 2.06698 17.256 1.9107C17.0997 1.75442 16.8877 1.66663 16.6667 1.66663C16.4457 1.66663 16.2337 1.75442 16.0775 1.9107C15.9212 2.06698 15.8334 2.27895 15.8334 2.49996Z" fill="#464255"/>
</g>
</svg>
