<svg width="18" height="15" viewBox="0 0 18 15" fill="none" xmlns="http://www.w3.org/2000/svg">
<g id="Layer 2">
<path id="Vector" d="M15.875 3.875H15.0032L15.1094 2.81119C15.1354 2.55056 15.1066 2.28737 15.0246 2.03858C14.9427 1.78979 14.8096 1.56093 14.6338 1.36674C14.458 1.17255 14.2435 1.01734 14.0041 0.911116C13.7647 0.804891 13.5057 0.750006 13.2437 0.75H3.50625C3.24427 0.750021 2.9852 0.804932 2.74573 0.911195C2.50627 1.01746 2.29173 1.17272 2.11594 1.36696C1.94015 1.56121 1.80701 1.79013 1.7251 2.03897C1.64319 2.28782 1.61433 2.55107 1.64037 2.81175L2.4963 12.3719C2.51309 12.5218 2.48018 12.2108 2.59993 12.8107H0.730552C0.564791 12.8107 0.40582 12.8765 0.28861 12.9937C0.1714 13.1109 0.105552 13.2699 0.105552 13.4357C0.105552 13.6014 0.1714 13.7604 0.28861 13.8776C0.40582 13.9948 0.564791 14.0607 0.730552 14.0607L16 14.25C16.1658 14.25 16.3247 14.1842 16.4419 14.0669C16.5591 13.9497 16.625 13.7908 16.625 13.625C16.625 13.4592 16.5591 13.3003 16.4419 13.1831C16.3247 13.0658 16.1658 13 16 13H14.1307C14.1827 12.8586 14.2175 12.7115 14.2342 12.5618L14.4405 9.5H15.875C16.3721 9.49945 16.8487 9.30173 17.2002 8.95022C17.5517 8.59871 17.7495 8.12211 17.75 7.625V5.75C17.7495 5.25289 17.5517 4.77629 17.2002 4.42478C16.8487 4.07327 16.3721 3.87555 15.875 3.875ZM4.66128 12.8107C4.50625 12.8112 4.3566 12.7538 4.24167 12.6498C4.12673 12.5457 4.05478 12.4025 4.03991 12.2482L3.13784 2.83982C3.12913 2.75289 3.13874 2.6651 3.16603 2.5821C3.19332 2.49911 3.23769 2.42275 3.29629 2.35795C3.35489 2.29314 3.42641 2.24133 3.50625 2.20585C3.58608 2.17037 3.67247 2.15201 3.75984 2.15195L13.0204 2.20585C13.1077 2.20591 13.1941 2.22426 13.2739 2.25971C13.3537 2.29517 13.4252 2.34694 13.4838 2.4117C13.5424 2.47647 13.5868 2.55278 13.6141 2.63574C13.6414 2.71869 13.6511 2.80645 13.6424 2.89335L13.0204 12.2488C13.0054 12.4031 12.9334 12.5462 12.8184 12.6501C12.7034 12.754 12.5538 12.8113 12.3988 12.8107H4.66128ZM16.5 7.625C16.4999 7.79073 16.434 7.94964 16.3168 8.06683C16.1996 8.18402 16.0407 8.2499 15.875 8.25H14.5656L14.8781 5.125H15.875C16.0407 5.1251 16.1996 5.19098 16.3168 5.30817C16.434 5.42536 16.4999 5.58427 16.5 5.75V7.625Z" fill="#464255"/>
</g>
</svg>
