<svg width="20" height="20" viewBox="0 0 20 20" fill="none" xmlns="http://www.w3.org/2000/svg">
<g id="Icon">
<path id="Vector" d="M10 9.99986C10.4603 9.99986 10.8334 9.62676 10.8334 9.16652C10.8334 8.70629 10.4603 8.33319 10 8.33319C9.53978 8.33319 9.16669 8.70629 9.16669 9.16652C9.16669 9.62676 9.53978 9.99986 10 9.99986Z" fill="#464255"/>
<path id="Vector_2" d="M6.66665 9.99986C7.12688 9.99986 7.49998 9.62676 7.49998 9.16652C7.49998 8.70629 7.12688 8.33319 6.66665 8.33319C6.20641 8.33319 5.83331 8.70629 5.83331 9.16652C5.83331 9.62676 6.20641 9.99986 6.66665 9.99986Z" fill="#464255"/>
<path id="Vector_3" d="M13.3333 9.99986C13.7936 9.99986 14.1667 9.62676 14.1667 9.16652C14.1667 8.70629 13.7936 8.33319 13.3333 8.33319C12.8731 8.33319 12.5 8.70629 12.5 9.16652C12.5 9.62676 12.8731 9.99986 13.3333 9.99986Z" fill="#464255"/>
<path id="Vector_4" d="M2.54157 18.225C2.71598 18.297 2.90289 18.3338 3.09157 18.3333C3.27764 18.3343 3.46201 18.2979 3.63377 18.2263C3.80554 18.1547 3.9612 18.0494 4.09157 17.9167L6.1749 15.8333H14.1666C15.2716 15.8333 16.3314 15.3943 17.1128 14.6129C17.8942 13.8315 18.3332 12.7717 18.3332 11.6667V6.66667C18.3332 5.5616 17.8942 4.50179 17.1128 3.72039C16.3314 2.93899 15.2716 2.5 14.1666 2.5H5.83323C4.72816 2.5 3.66836 2.93899 2.88695 3.72039C2.10555 4.50179 1.66657 5.5616 1.66657 6.66667V16.9083C1.66392 17.1902 1.7459 17.4663 1.90189 17.701C2.05788 17.9358 2.28072 18.1183 2.54157 18.225ZM3.33323 6.66667C3.33323 6.00363 3.59662 5.36774 4.06547 4.8989C4.53431 4.43006 5.17019 4.16667 5.83323 4.16667H14.1666C14.8296 4.16667 15.4655 4.43006 15.9343 4.8989C16.4032 5.36774 16.6666 6.00363 16.6666 6.66667V11.6667C16.6666 12.3297 16.4032 12.9656 15.9343 13.4344C15.4655 13.9033 14.8296 14.1667 14.1666 14.1667H5.83323C5.72356 14.166 5.61484 14.1871 5.51331 14.2285C5.41178 14.27 5.31943 14.3311 5.24157 14.4083L3.33323 16.325V6.66667Z" fill="#464255"/>
</g>
</svg>
