<svg width="20" height="20" viewBox="0 0 20 20" fill="none" xmlns="http://www.w3.org/2000/svg">
<path d="M15.9916 13.9249C16.4243 13.4084 16.663 12.7571 16.6666 12.0833C16.6666 11.3097 16.3593 10.5679 15.8123 10.0209C15.2653 9.4739 14.5235 9.16661 13.7499 9.16661H13.5166C14.2038 8.34993 14.5815 7.3173 14.5833 6.24994C14.5852 5.4804 14.3934 4.72275 14.0254 4.04688C13.6574 3.371 13.1252 2.79865 12.4779 2.3826C11.8305 1.96656 11.0887 1.72022 10.3211 1.6663C9.55344 1.61237 8.78457 1.75261 8.08538 2.07407C7.38619 2.39552 6.77919 2.88785 6.32037 3.50566C5.86155 4.12346 5.56566 4.84685 5.46001 5.60911C5.35436 6.37137 5.44234 7.14796 5.71583 7.86726C5.98932 8.58657 6.43953 9.22543 7.02493 9.72494C5.45015 10.3268 4.09495 11.3921 3.13828 12.7803C2.1816 14.1684 1.66846 15.8141 1.6666 17.4999C1.6666 17.721 1.75439 17.9329 1.91067 18.0892C2.06695 18.2455 2.27892 18.3333 2.49993 18.3333C2.72094 18.3333 2.9329 18.2455 3.08918 18.0892C3.24546 17.9329 3.33326 17.721 3.33326 17.4999C3.33326 15.7318 4.03564 14.0361 5.28588 12.7859C6.53613 11.5357 8.23182 10.8333 9.99993 10.8333H11.1249C10.8808 11.33 10.7871 11.8871 10.8552 12.4363C10.9233 12.9855 11.1503 13.5029 11.5083 13.9249C10.7983 14.322 10.2071 14.9012 9.7955 15.6029C9.3839 16.3045 9.16681 17.1032 9.1666 17.9166C9.1666 18.1376 9.25439 18.3496 9.41067 18.5059C9.56695 18.6621 9.77892 18.7499 9.99993 18.7499C10.2209 18.7499 10.4329 18.6621 10.5892 18.5059C10.7455 18.3496 10.8333 18.1376 10.8333 17.9166C10.8333 17.1431 11.1406 16.4012 11.6875 15.8542C12.2345 15.3072 12.9764 14.9999 13.7499 14.9999C14.5235 14.9999 15.2653 15.3072 15.8123 15.8542C16.3593 16.4012 16.6666 17.1431 16.6666 17.9166C16.6666 18.1376 16.7544 18.3496 16.9107 18.5059C17.067 18.6621 17.2789 18.7499 17.4999 18.7499C17.7209 18.7499 17.9329 18.6621 18.0892 18.5059C18.2455 18.3496 18.3333 18.1376 18.3333 17.9166C18.3331 17.1032 18.116 16.3045 17.7044 15.6029C17.2928 14.9012 16.7015 14.322 15.9916 13.9249ZM9.99993 9.16661C9.42307 9.16661 8.85916 8.99555 8.37952 8.67506C7.89987 8.35457 7.52604 7.89905 7.30528 7.3661C7.08452 6.83315 7.02676 6.24671 7.13931 5.68093C7.25185 5.11515 7.52963 4.59545 7.93753 4.18755C8.34544 3.77964 8.86514 3.50186 9.43092 3.38932C9.99669 3.27678 10.5831 3.33454 11.1161 3.55529C11.649 3.77605 12.1046 4.14989 12.425 4.62953C12.7455 5.10917 12.9166 5.67308 12.9166 6.24994C12.9166 7.02349 12.6093 7.76536 12.0623 8.31234C11.5153 8.85932 10.7735 9.16661 9.99993 9.16661ZM13.7499 13.3333C13.4184 13.3333 13.1005 13.2016 12.866 12.9672C12.6316 12.7327 12.4999 12.4148 12.4999 12.0833C12.5021 11.7524 12.6345 11.4358 12.8685 11.2018C13.1024 10.9679 13.4191 10.8355 13.7499 10.8333C14.0815 10.8333 14.3994 10.965 14.6338 11.1994C14.8682 11.4338 14.9999 11.7518 14.9999 12.0833C14.9999 12.4148 14.8682 12.7327 14.6338 12.9672C14.3994 13.2016 14.0815 13.3333 13.7499 13.3333Z" fill="#464255"/>
</svg>
