<svg width="26" height="20" viewBox="0 0 26 20" fill="none" xmlns="http://www.w3.org/2000/svg">
<path id="import_contacts" d="M6.58341 14.667C7.4973 14.667 8.38689 14.7691 9.25216 14.9732C10.1174 15.1774 10.9779 15.4837 11.8334 15.892V4.40033C11.0362 3.93366 10.1904 3.58366 9.29591 3.35033C8.40147 3.11699 7.4973 3.00033 6.58341 3.00033C5.88341 3.00033 5.18828 3.06838 4.498 3.20449C3.80772 3.3406 3.14175 3.54477 2.50008 3.81699V15.367C3.18064 15.1337 3.85633 14.9587 4.52716 14.842C5.198 14.7253 5.88341 14.667 6.58341 14.667ZM14.1667 15.892C15.0223 15.4837 15.8827 15.1774 16.748 14.9732C17.6133 14.7691 18.5029 14.667 19.4167 14.667C20.1167 14.667 20.8022 14.7253 21.473 14.842C22.1438 14.9587 22.8195 15.1337 23.5001 15.367V3.81699C22.8584 3.54477 22.1924 3.3406 21.5022 3.20449C20.8119 3.06838 20.1167 3.00033 19.4167 3.00033C18.5029 3.00033 17.5987 3.11699 16.7042 3.35033C15.8098 3.58366 14.964 3.93366 14.1667 4.40033V15.892ZM13.0001 19.3337C12.0667 18.5948 11.0556 18.0212 9.96675 17.6128C8.87786 17.2045 7.75008 17.0003 6.58341 17.0003C5.76675 17.0003 4.96466 17.1073 4.17716 17.3212C3.38966 17.535 2.63619 17.8364 1.91675 18.2253C1.50841 18.4392 1.11466 18.4295 0.735498 18.1962C0.356331 17.9628 0.166748 17.6225 0.166748 17.1753V3.11699C0.166748 2.9031 0.22022 2.69894 0.327165 2.50449C0.434109 2.31005 0.594526 2.16421 0.808415 2.06699C1.70286 1.60033 2.63619 1.25033 3.60841 1.01699C4.58064 0.783659 5.5723 0.666992 6.58341 0.666992C7.71119 0.666992 8.81466 0.812826 9.89383 1.10449C10.973 1.39616 12.0084 1.83366 13.0001 2.41699C13.9917 1.83366 15.0272 1.39616 16.1063 1.10449C17.1855 0.812826 18.289 0.666992 19.4167 0.666992C20.4279 0.666992 21.4195 0.783659 22.3917 1.01699C23.364 1.25033 24.2973 1.60033 25.1917 2.06699C25.4056 2.16421 25.5661 2.31005 25.673 2.50449C25.7799 2.69894 25.8334 2.9031 25.8334 3.11699V17.1753C25.8334 17.6225 25.6438 17.9628 25.2647 18.1962C24.8855 18.4295 24.4917 18.4392 24.0834 18.2253C23.364 17.8364 22.6105 17.535 21.823 17.3212C21.0355 17.1073 20.2334 17.0003 19.4167 17.0003C18.2501 17.0003 17.1223 17.2045 16.0334 17.6128C14.9445 18.0212 13.9334 18.5948 13.0001 19.3337Z" fill="#2D9CDB"/>
</svg>
