<svg width="24" height="20" viewBox="0 0 24 20" fill="none" xmlns="http://www.w3.org/2000/svg">
<path id="Vector" d="M4.5 19.8757H19.5C20.4946 19.8757 21.4484 19.5464 22.1517 18.9604C22.8549 18.3743 23.25 17.5795 23.25 16.7507V4.25065C23.25 3.42185 22.8549 2.62699 22.1517 2.04094C21.4484 1.45489 20.4946 1.12565 19.5 1.12565H18.25C18.25 0.849384 18.1183 0.584432 17.8839 0.389081C17.6495 0.193731 17.3315 0.0839844 17 0.0839844C16.6685 0.0839844 16.3505 0.193731 16.1161 0.389081C15.8817 0.584432 15.75 0.849384 15.75 1.12565H8.25C8.25 0.849384 8.1183 0.584432 7.88388 0.389081C7.64946 0.193731 7.33152 0.0839844 7 0.0839844C6.66848 0.0839844 6.35054 0.193731 6.11612 0.389081C5.8817 0.584432 5.75 0.849384 5.75 1.12565H4.5C3.50544 1.12565 2.55161 1.45489 1.84835 2.04094C1.14509 2.62699 0.75 3.42185 0.75 4.25065V16.7507C0.75 17.5795 1.14509 18.3743 1.84835 18.9604C2.55161 19.5464 3.50544 19.8757 4.5 19.8757ZM3.25 4.25065C3.25 3.97438 3.3817 3.70943 3.61612 3.51408C3.85054 3.31873 4.16848 3.20898 4.5 3.20898H5.75V4.25065C5.75 4.52692 5.8817 4.79187 6.11612 4.98722C6.35054 5.18257 6.66848 5.29232 7 5.29232C7.33152 5.29232 7.64946 5.18257 7.88388 4.98722C8.1183 4.79187 8.25 4.52692 8.25 4.25065V3.20898H15.75V4.25065C15.75 4.52692 15.8817 4.79187 16.1161 4.98722C16.3505 5.18257 16.6685 5.29232 17 5.29232C17.3315 5.29232 17.6495 5.18257 17.8839 4.98722C18.1183 4.79187 18.25 4.52692 18.25 4.25065V3.20898H19.5C19.8315 3.20898 20.1495 3.31873 20.3839 3.51408C20.6183 3.70943 20.75 3.97438 20.75 4.25065V7.37565H3.25V4.25065ZM3.25 9.45899H20.75V16.7507C20.75 17.0269 20.6183 17.2919 20.3839 17.4872C20.1495 17.6826 19.8315 17.7923 19.5 17.7923H4.5C4.16848 17.7923 3.85054 17.6826 3.61612 17.4872C3.3817 17.2919 3.25 17.0269 3.25 16.7507V9.45899Z" fill="#2D9CDB"/>
</svg>
