<svg width="30" height="30" viewBox="0 0 30 30" fill="none" xmlns="http://www.w3.org/2000/svg">
<g id="group_work">
<mask id="mask0_2000_918" style="mask-type:alpha" maskUnits="userSpaceOnUse" x="0" y="0" width="30" height="30">
<rect id="Bounding box" width="30" height="30" fill="#D9D9D9"/>
</mask>
<g mask="url(#mask0_2000_918)">
<path id="group_work_2" d="M10 20C10.6875 20 11.276 19.7552 11.7656 19.2656C12.2552 18.776 12.5 18.1875 12.5 17.5C12.5 16.8125 12.2552 16.224 11.7656 15.7344C11.276 15.2448 10.6875 15 10 15C9.3125 15 8.72396 15.2448 8.23438 15.7344C7.74479 16.224 7.5 16.8125 7.5 17.5C7.5 18.1875 7.74479 18.776 8.23438 19.2656C8.72396 19.7552 9.3125 20 10 20ZM20 20C20.6875 20 21.276 19.7552 21.7656 19.2656C22.2552 18.776 22.5 18.1875 22.5 17.5C22.5 16.8125 22.2552 16.224 21.7656 15.7344C21.276 15.2448 20.6875 15 20 15C19.3125 15 18.724 15.2448 18.2344 15.7344C17.7448 16.224 17.5 16.8125 17.5 17.5C17.5 18.1875 17.7448 18.776 18.2344 19.2656C18.724 19.7552 19.3125 20 20 20ZM15 12.5C15.6875 12.5 16.276 12.2552 16.7656 11.7656C17.2552 11.276 17.5 10.6875 17.5 10C17.5 9.3125 17.2552 8.72396 16.7656 8.23438C16.276 7.74479 15.6875 7.5 15 7.5C14.3125 7.5 13.724 7.74479 13.2344 8.23438C12.7448 8.72396 12.5 9.3125 12.5 10C12.5 10.6875 12.7448 11.276 13.2344 11.7656C13.724 12.2552 14.3125 12.5 15 12.5ZM15 27.5C13.2708 27.5 11.6458 27.1719 10.125 26.5156C8.60417 25.8594 7.28125 24.9688 6.15625 23.8438C5.03125 22.7188 4.14063 21.3958 3.48438 19.875C2.82812 18.3542 2.5 16.7292 2.5 15C2.5 13.2708 2.82812 11.6458 3.48438 10.125C4.14063 8.60417 5.03125 7.28125 6.15625 6.15625C7.28125 5.03125 8.60417 4.14063 10.125 3.48438C11.6458 2.82812 13.2708 2.5 15 2.5C16.7292 2.5 18.3542 2.82812 19.875 3.48438C21.3958 4.14063 22.7188 5.03125 23.8438 6.15625C24.9688 7.28125 25.8594 8.60417 26.5156 10.125C27.1719 11.6458 27.5 13.2708 27.5 15C27.5 16.7292 27.1719 18.3542 26.5156 19.875C25.8594 21.3958 24.9688 22.7188 23.8438 23.8438C22.7188 24.9688 21.3958 25.8594 19.875 26.5156C18.3542 27.1719 16.7292 27.5 15 27.5ZM15 25C17.7917 25 20.1562 24.0312 22.0938 22.0938C24.0312 20.1562 25 17.7917 25 15C25 12.2083 24.0312 9.84375 22.0938 7.90625C20.1562 5.96875 17.7917 5 15 5C12.2083 5 9.84375 5.96875 7.90625 7.90625C5.96875 9.84375 5 12.2083 5 15C5 17.7917 5.96875 20.1562 7.90625 22.0938C9.84375 24.0312 12.2083 25 15 25Z" fill="#2D9CDB"/>
</g>
</g>
</svg>
