<svg width="28" height="30" viewBox="0 0 28 30" fill="none" xmlns="http://www.w3.org/2000/svg">
<path id="search" d="M27.7613 28.2628L21.0535 21.0845C22.8529 18.8707 23.9423 15.9824 23.9423 12.8255C23.9423 5.87642 18.6605 0.230713 12.173 0.230713C5.67936 0.230713 0.403687 5.88297 0.403687 12.8255C0.403687 19.768 5.68548 25.4203 12.173 25.4203C15.1229 25.4203 17.822 24.2545 19.8906 22.3289L26.5985 29.5072C26.7576 29.6775 26.9718 29.7692 27.1799 29.7692C27.388 29.7692 27.6022 29.684 27.7613 29.5072C28.0796 29.1666 28.0796 28.6034 27.7613 28.2628ZM2.05004 12.8255C2.05004 6.85231 6.59128 1.99909 12.1669 1.99909C17.7485 1.99909 22.2837 6.85886 22.2837 12.8255C22.2837 18.7921 17.7485 23.6584 12.1669 23.6584C6.59128 23.6584 2.05004 18.7987 2.05004 12.8255Z" fill="#A4A4A4"/>
</svg>
