<svg width="22" height="22" viewBox="0 0 22 22" fill="none" xmlns="http://www.w3.org/2000/svg">
<g id="Layer 2">
<path id="Vector" d="M11.0001 6.625C10.1348 6.625 9.28896 6.88159 8.5695 7.36232C7.85004 7.84305 7.28928 8.52633 6.95815 9.32576C6.62702 10.1252 6.54038 11.0048 6.70919 11.8535C6.878 12.7022 7.29468 13.4817 7.90653 14.0936C8.51838 14.7054 9.29793 15.1221 10.1466 15.2909C10.9953 15.4597 11.8749 15.3731 12.6744 15.042C13.4738 14.7108 14.1571 14.1501 14.6378 13.4306C15.1185 12.7111 15.3751 11.8653 15.3751 11C15.3737 9.84009 14.9124 8.72809 14.0922 7.90791C13.272 7.08774 12.16 6.62637 11.0001 6.625ZM11.0001 13.625C10.4809 13.625 9.97342 13.471 9.54175 13.1826C9.11007 12.8942 8.77362 12.4842 8.57494 12.0045C8.37626 11.5249 8.32427 10.9971 8.42556 10.4879C8.52685 9.97868 8.77685 9.51095 9.14396 9.14384C9.51108 8.77673 9.97881 8.52672 10.488 8.42544C10.9972 8.32415 11.525 8.37613 12.0047 8.57481C12.4843 8.77349 12.8943 9.10995 13.1827 9.54162C13.4712 9.9733 13.6251 10.4808 13.6251 11C13.6243 11.696 13.3475 12.3632 12.8554 12.8553C12.3633 13.3474 11.6961 13.6242 11.0001 13.625Z" fill="#FF5B5B"/>
<path id="Vector_2" d="M2.48931 5.55982C2.05905 5.39818 1.58279 5.41024 1.16126 5.59346C0.739741 5.77668 0.406021 6.11668 0.230699 6.54155C0.0553773 6.96642 0.0522048 7.44283 0.221853 7.86999C0.391501 8.29716 0.720663 8.64158 1.13971 8.8304C1.56601 9.01071 1.92974 9.31263 2.18546 9.69845C2.44118 10.0843 2.57756 10.5369 2.57756 10.9997C2.57756 11.4626 2.44118 11.9152 2.18546 12.301C1.92974 12.6869 1.56601 12.9888 1.13971 13.1691C0.720563 13.3579 0.391321 13.7024 0.22165 14.1296C0.0519783 14.5569 0.0551899 15.0334 0.230605 15.4583C0.40602 15.8833 0.739875 16.2233 1.16153 16.4064C1.58318 16.5896 2.05955 16.6015 2.48983 16.4397C2.91921 16.2648 3.39064 16.2205 3.84506 16.3124C4.29949 16.4042 4.71671 16.6281 5.04446 16.956C5.3722 17.2839 5.59591 17.7013 5.68754 18.1557C5.77918 18.6102 5.73467 19.0816 5.5596 19.5109C5.39271 19.9423 5.40307 20.4222 5.58842 20.846C5.77376 21.2698 6.11908 21.6032 6.54913 21.7736C6.7645 21.8627 6.99531 21.9086 7.2284 21.9086C7.56891 21.911 7.90255 21.8128 8.1875 21.6263C8.47244 21.4399 8.69601 21.1735 8.83017 20.8605C9.01048 20.4342 9.3124 20.0705 9.69822 19.8148C10.084 19.559 10.5366 19.4227 10.9995 19.4227C11.4624 19.4227 11.915 19.559 12.3008 19.8148C12.6866 20.0705 12.9885 20.4342 13.1689 20.8605C13.3577 21.2797 13.7022 21.6089 14.1294 21.7786C14.5567 21.9482 15.0332 21.945 15.4581 21.7696C15.883 21.5942 16.223 21.2603 16.4062 20.8387C16.5893 20.417 16.6013 19.9407 16.4394 19.5104C16.2646 19.081 16.2203 18.6096 16.3121 18.1552C16.404 17.7007 16.6279 17.2835 16.9558 16.9558C17.2837 16.628 17.701 16.4043 18.1555 16.3127C18.61 16.221 19.0814 16.2655 19.5107 16.4406C19.9394 16.6071 20.4164 16.5981 20.8386 16.4158C21.2608 16.2334 21.5942 15.8923 21.767 15.466L20.9646 15.1174L20.1683 14.8192C19.4205 14.5137 18.599 14.4361 17.8072 14.5962C17.0154 14.7563 16.2886 15.147 15.7182 15.719C15.1482 16.2936 14.7566 17.0207 14.5906 17.8128C14.4245 18.605 14.4912 19.4282 14.7824 20.1833C14.4703 19.438 13.9446 18.8019 13.2715 18.355C12.5984 17.9082 11.808 17.6706 11.0001 17.6723C10.1904 17.6748 9.39876 17.9119 8.72103 18.355C8.04329 18.798 7.50848 19.428 7.18132 20.1686C7.48664 19.4208 7.56413 18.5993 7.40404 17.8076C7.24395 17.0158 6.85344 16.289 6.28156 15.7185C5.70694 15.1486 4.97978 14.757 4.18769 14.591C3.39561 14.425 2.57241 14.4916 1.81731 14.7828C2.5625 14.4705 3.19857 13.9447 3.64534 13.2715C4.0921 12.5983 4.32956 11.8079 4.32777 11C4.32526 10.1903 4.08814 9.39864 3.64509 8.7209C3.20204 8.04316 2.57207 7.50835 1.8314 7.1812C2.57924 7.4867 3.40071 7.56429 4.19252 7.40419C4.98434 7.2441 5.71115 6.85348 6.28156 6.28144C6.85153 5.70687 7.24314 4.9797 7.40916 4.1876C7.57519 3.39549 7.50855 2.57227 7.21728 1.81719C7.5295 2.56238 8.05535 3.19845 8.72855 3.64521C9.40174 4.09198 10.1921 4.32944 11.0001 4.32765C11.8098 4.32514 12.6014 4.08801 13.2791 3.64497C13.9569 3.20192 14.4917 2.57194 14.8188 1.83127C14.5135 2.57915 14.436 3.40057 14.5961 4.19235C14.7562 4.98412 15.1467 5.71092 15.7186 6.28144C16.2934 6.85111 17.0205 7.24252 17.8126 7.40853C18.6046 7.57455 19.4277 7.50809 20.1829 7.21716C19.4413 7.52872 18.8078 8.05166 18.3614 8.72079C17.9149 9.38993 17.6753 10.1757 17.6724 10.98C17.6695 11.7844 17.9034 12.5719 18.345 13.2442C18.7865 13.9165 19.4162 14.4441 20.1556 14.761C20.158 14.7682 20.158 14.776 20.1556 14.7832L20.9643 15.1169L21.7684 15.4617L21.7731 15.4506C21.9517 15.0268 21.9561 14.5497 21.7852 14.1228C21.6144 13.6959 21.2821 13.3535 20.8605 13.17C20.4342 12.9896 20.0704 12.6877 19.8147 12.3019C19.559 11.9161 19.4226 11.4635 19.4226 11.0006C19.4226 10.5377 19.559 10.0851 19.8147 9.69932C20.0704 9.31351 20.4342 9.01159 20.8605 8.83127C21.2796 8.64246 21.6088 8.29797 21.7785 7.87072C21.9482 7.44346 21.945 6.96696 21.7696 6.54203C21.5941 6.1171 21.2603 5.77708 20.8386 5.59393C20.417 5.41078 19.9406 5.39886 19.5103 5.5607C19.081 5.73556 18.6095 5.77984 18.1551 5.68799C17.7007 5.59613 17.2835 5.37223 16.9557 5.04432C16.628 4.71641 16.4043 4.29909 16.3126 3.84462C16.221 3.39015 16.2655 2.91874 16.4406 2.48945C16.6023 2.05918 16.5904 1.58286 16.4072 1.16126C16.224 0.739657 15.884 0.405855 15.4591 0.23048C15.0342 0.0551053 14.5578 0.0519158 14.1305 0.221586C13.7033 0.391257 13.3589 0.720476 13.1701 1.13959C12.9898 1.56589 12.6879 1.92962 12.302 2.18534C11.9162 2.44106 11.4636 2.57744 11.0007 2.57744C10.5379 2.57744 10.0853 2.44106 9.69945 2.18534C9.31363 1.92962 9.01171 1.56589 8.8314 1.13959C8.64258 0.720441 8.2981 0.391199 7.87084 0.221528C7.44359 0.0518562 6.96708 0.0550679 6.54215 0.230483C6.11722 0.405898 5.77721 0.739753 5.59406 1.16141C5.41091 1.58306 5.39899 2.05943 5.56082 2.48971C5.73569 2.91909 5.77997 3.39051 5.68811 3.84494C5.59625 4.29937 5.37235 4.71659 5.04444 5.04433C4.71654 5.37208 4.29921 5.59578 3.84474 5.68742C3.39027 5.77905 2.91886 5.73455 2.48957 5.55947L2.48931 5.55982Z" fill="#FF5B5B"/>
</g>
</svg>
